<mxfile host="app.diagrams.net" modified="2020-12-11T10:41:20.955Z" agent="5.0 (Windows NT 10.0; Win64; x64) AppleWebKit/537.36 (KHTML, like Gecko) Chrome/86.0.4240.198 Safari/537.36" etag="X21ypRbLxpUk_vzPLFxy" version="14.0.0" type="github">
  <diagram id="w9n6YzL34nqY3iqDPi-S" name="Page-1">
    <mxGraphModel dx="916" dy="497" grid="1" gridSize="10" guides="1" tooltips="1" connect="1" arrows="1" fold="1" page="1" pageScale="1" pageWidth="827" pageHeight="1169" math="0" shadow="0">
      <root>
        <mxCell id="0" />
        <mxCell id="1" parent="0" />
        <mxCell id="Ks5GGiDZ_D1vzZZGvswi-30" value="" style="verticalLabelPosition=bottom;verticalAlign=top;html=1;shape=mxgraph.basic.rect;fillColor2=none;strokeWidth=2;size=20;indent=5;strokeColor=#FFB570;" vertex="1" parent="1">
          <mxGeometry x="60" y="70" width="630" height="270" as="geometry" />
        </mxCell>
        <mxCell id="Ks5GGiDZ_D1vzZZGvswi-33" value="" style="rounded=0;whiteSpace=wrap;html=1;strokeWidth=2;fillColor=#ffe6cc;strokeColor=#d79b00;" vertex="1" parent="1">
          <mxGeometry x="270" y="100" width="190" height="50" as="geometry" />
        </mxCell>
        <mxCell id="Ks5GGiDZ_D1vzZZGvswi-8" style="edgeStyle=orthogonalEdgeStyle;rounded=0;orthogonalLoop=1;jettySize=auto;html=1;exitX=1;exitY=0.25;exitDx=0;exitDy=0;" edge="1" parent="1" source="Ks5GGiDZ_D1vzZZGvswi-1">
          <mxGeometry relative="1" as="geometry">
            <mxPoint x="290" y="230" as="targetPoint" />
          </mxGeometry>
        </mxCell>
        <mxCell id="Ks5GGiDZ_D1vzZZGvswi-1" value="Clients" style="rounded=1;whiteSpace=wrap;html=1;fillColor=#ffe6cc;strokeColor=#d79b00;" vertex="1" parent="1">
          <mxGeometry x="80" y="220" width="100" height="40" as="geometry" />
        </mxCell>
        <mxCell id="Ks5GGiDZ_D1vzZZGvswi-3" value="Tomcat&lt;br&gt;Controller" style="rounded=1;whiteSpace=wrap;html=1;fillColor=#ffe6cc;strokeColor=#d79b00;" vertex="1" parent="1">
          <mxGeometry x="294" y="195" width="120" height="95" as="geometry" />
        </mxCell>
        <mxCell id="Ks5GGiDZ_D1vzZZGvswi-4" value="CreditReport(xml/json)&lt;br&gt;prase/process(.jar)" style="rounded=1;whiteSpace=wrap;html=1;fillColor=#ffe6cc;strokeColor=#d79b00;" vertex="1" parent="1">
          <mxGeometry x="530" y="150" width="120" height="60" as="geometry" />
        </mxCell>
        <mxCell id="Ks5GGiDZ_D1vzZZGvswi-5" value="Check rule(.py)" style="rounded=1;whiteSpace=wrap;html=1;fillColor=#ffe6cc;strokeColor=#d79b00;" vertex="1" parent="1">
          <mxGeometry x="530" y="250" width="120" height="60" as="geometry" />
        </mxCell>
        <mxCell id="Ks5GGiDZ_D1vzZZGvswi-9" value="0" style="text;html=1;align=center;verticalAlign=middle;resizable=0;points=[];autosize=1;" vertex="1" parent="1">
          <mxGeometry x="220" y="210" width="20" height="20" as="geometry" />
        </mxCell>
        <mxCell id="Ks5GGiDZ_D1vzZZGvswi-15" value="" style="endArrow=classic;html=1;entryX=-0.017;entryY=0.367;entryDx=0;entryDy=0;entryPerimeter=0;" edge="1" parent="1" target="Ks5GGiDZ_D1vzZZGvswi-4">
          <mxGeometry width="50" height="50" relative="1" as="geometry">
            <mxPoint x="418" y="220" as="sourcePoint" />
            <mxPoint x="464" y="180" as="targetPoint" />
          </mxGeometry>
        </mxCell>
        <mxCell id="Ks5GGiDZ_D1vzZZGvswi-17" value="" style="endArrow=classic;html=1;exitX=0;exitY=0.667;exitDx=0;exitDy=0;entryX=1;entryY=0.5;entryDx=0;entryDy=0;exitPerimeter=0;" edge="1" parent="1" source="Ks5GGiDZ_D1vzZZGvswi-4" target="Ks5GGiDZ_D1vzZZGvswi-3">
          <mxGeometry width="50" height="50" relative="1" as="geometry">
            <mxPoint x="380" y="300" as="sourcePoint" />
            <mxPoint x="430" y="250" as="targetPoint" />
          </mxGeometry>
        </mxCell>
        <mxCell id="Ks5GGiDZ_D1vzZZGvswi-18" value="1" style="text;html=1;strokeColor=none;fillColor=none;align=center;verticalAlign=middle;whiteSpace=wrap;rounded=0;" vertex="1" parent="1">
          <mxGeometry x="460" y="175" width="40" height="20" as="geometry" />
        </mxCell>
        <mxCell id="Ks5GGiDZ_D1vzZZGvswi-19" value="2" style="text;html=1;strokeColor=none;fillColor=none;align=center;verticalAlign=middle;whiteSpace=wrap;rounded=0;" vertex="1" parent="1">
          <mxGeometry x="460" y="210" width="40" height="20" as="geometry" />
        </mxCell>
        <mxCell id="Ks5GGiDZ_D1vzZZGvswi-20" value="" style="endArrow=classic;html=1;entryX=0;entryY=0.25;entryDx=0;entryDy=0;" edge="1" parent="1" target="Ks5GGiDZ_D1vzZZGvswi-5">
          <mxGeometry width="50" height="50" relative="1" as="geometry">
            <mxPoint x="417" y="250" as="sourcePoint" />
            <mxPoint x="440" y="220" as="targetPoint" />
          </mxGeometry>
        </mxCell>
        <mxCell id="Ks5GGiDZ_D1vzZZGvswi-21" value="" style="endArrow=classic;html=1;exitX=0.017;exitY=0.633;exitDx=0;exitDy=0;exitPerimeter=0;entryX=1;entryY=0.75;entryDx=0;entryDy=0;" edge="1" parent="1" source="Ks5GGiDZ_D1vzZZGvswi-5" target="Ks5GGiDZ_D1vzZZGvswi-3">
          <mxGeometry width="50" height="50" relative="1" as="geometry">
            <mxPoint x="390" y="270" as="sourcePoint" />
            <mxPoint x="414" y="260" as="targetPoint" />
          </mxGeometry>
        </mxCell>
        <mxCell id="Ks5GGiDZ_D1vzZZGvswi-22" value="3" style="text;html=1;strokeColor=none;fillColor=none;align=center;verticalAlign=middle;whiteSpace=wrap;rounded=0;" vertex="1" parent="1">
          <mxGeometry x="460" y="240" width="40" height="20" as="geometry" />
        </mxCell>
        <mxCell id="Ks5GGiDZ_D1vzZZGvswi-24" value="5" style="text;html=1;strokeColor=none;fillColor=none;align=center;verticalAlign=middle;whiteSpace=wrap;rounded=0;" vertex="1" parent="1">
          <mxGeometry x="210" y="260" width="40" height="20" as="geometry" />
        </mxCell>
        <mxCell id="Ks5GGiDZ_D1vzZZGvswi-26" value="" style="endArrow=classic;html=1;entryX=1;entryY=0.75;entryDx=0;entryDy=0;" edge="1" parent="1" target="Ks5GGiDZ_D1vzZZGvswi-1">
          <mxGeometry width="50" height="50" relative="1" as="geometry">
            <mxPoint x="290" y="250" as="sourcePoint" />
            <mxPoint x="440" y="220" as="targetPoint" />
          </mxGeometry>
        </mxCell>
        <mxCell id="Ks5GGiDZ_D1vzZZGvswi-28" value="Text" style="text;html=1;strokeColor=none;fillColor=none;align=center;verticalAlign=middle;whiteSpace=wrap;rounded=0;" vertex="1" parent="1">
          <mxGeometry x="390" y="230" width="40" height="20" as="geometry" />
        </mxCell>
        <mxCell id="Ks5GGiDZ_D1vzZZGvswi-32" value="&lt;font face=&quot;Times New Roman&quot; style=&quot;font-size: 15px&quot;&gt;征信模盒策略处理流程图&lt;/font&gt;" style="text;html=1;strokeColor=none;fillColor=none;align=center;verticalAlign=middle;whiteSpace=wrap;rounded=0;" vertex="1" parent="1">
          <mxGeometry x="265" y="115" width="200" height="20" as="geometry" />
        </mxCell>
        <mxCell id="Ks5GGiDZ_D1vzZZGvswi-34" value="4" style="text;html=1;strokeColor=none;fillColor=none;align=center;verticalAlign=middle;whiteSpace=wrap;rounded=0;" vertex="1" parent="1">
          <mxGeometry x="460" y="280" width="40" height="20" as="geometry" />
        </mxCell>
      </root>
    </mxGraphModel>
  </diagram>
</mxfile>
